<svg width="60" height="52" viewBox="0 0 60 52" fill="none" xmlns="http://www.w3.org/2000/svg">
<path d="M11.8359 0.804688H8.32031C6.37863 0.804688 4.80469 2.37863 4.80469 4.32031H15.3516C15.3516 2.37863 13.7776 0.804688 11.8359 0.804688Z" fill="#E6E6E6"/>
<path d="M53.5547 7.83594H41.8139L40.6721 4.41055C39.9531 2.25371 37.9425 0.804688 35.6692 0.804688H24.3308C22.0575 0.804688 20.0469 2.25371 19.328 4.41055L18.1861 7.83594H6.44531C2.89137 7.83594 0 10.7273 0 14.2812V44.75C0 48.3039 2.89137 51.1953 6.44531 51.1953H53.5547C57.1086 51.1953 60 48.3039 60 44.75V14.2812C60 10.7273 57.1086 7.83594 53.5547 7.83594ZM5.97656 14.2812C5.97656 13.3105 6.76359 12.5234 7.73438 12.5234H11.25C12.2208 12.5234 13.0078 13.3105 13.0078 14.2812C13.0078 15.252 12.2208 16.0391 11.25 16.0391H7.73438C6.76359 16.0391 5.97656 15.252 5.97656 14.2812ZM30 45.3359C20.6305 45.3359 13.0078 37.7132 13.0078 28.3438C13.0078 18.9743 20.6305 11.3516 30 11.3516C39.3695 11.3516 46.9922 18.9743 46.9922 28.3438C46.9922 37.7132 39.3695 45.3359 30 45.3359ZM51.0938 16.0391C50.123 16.0391 49.3359 15.252 49.3359 14.2812C49.3359 13.3105 50.123 12.5234 51.0938 12.5234C52.0645 12.5234 52.8516 13.3105 52.8516 14.2812C52.8516 15.252 52.0645 16.0391 51.0938 16.0391Z" fill="#E6E6E6"/>
<path d="M30 14.8672C22.569 14.8672 16.5234 20.9128 16.5234 28.3438C16.5234 35.7747 22.569 41.8203 30 41.8203C37.431 41.8203 43.4766 35.7747 43.4766 28.3438C43.4766 20.9128 37.431 14.8672 30 14.8672ZM30 37.7188C24.8306 37.7188 20.625 33.5131 20.625 28.3438C20.625 23.1744 24.8306 18.9688 30 18.9688C35.1694 18.9688 39.375 23.1744 39.375 28.3438C39.375 33.5131 35.1694 37.7188 30 37.7188Z" fill="#E6E6E6"/>
<path d="M30 34.2031C33.236 34.2031 35.8594 31.5798 35.8594 28.3438C35.8594 25.1077 33.236 22.4844 30 22.4844C26.764 22.4844 24.1406 25.1077 24.1406 28.3438C24.1406 31.5798 26.764 34.2031 30 34.2031Z" fill="#E6E6E6"/>
</svg>
