<svg width="35" height="28" viewBox="0 0 35 28" fill="none" xmlns="http://www.w3.org/2000/svg">
<path d="M31.6458 0H7.15393C5.30671 0.0079096 3.80787 1.47119 3.80787 3.28249V3.32203H3.35417C1.50694 3.32203 0.00810185 4.7774 0 6.58079V24.7175C0.00810185 26.5209 1.49884 27.9921 3.35417 28H27.8461C29.6933 27.9921 31.1921 26.5288 31.1921 24.7175V24.678H31.6458C33.4931 24.678 34.9919 23.2226 35 21.4192V3.28249C34.9919 1.47119 33.5012 0.0079096 31.6458 0ZM27.8461 26.4181H3.35417C2.39815 26.4102 1.62847 25.6508 1.62037 24.7175V6.58079C1.62847 5.65537 2.39815 4.90395 3.35417 4.90395H27.8461C28.794 4.90395 29.5718 5.64746 29.5718 6.58079V11.1051C29.4259 11.1367 29.2801 11.1525 29.1424 11.1525H24.4676C21.9236 11.1525 19.8576 13.1695 19.8576 15.6531C19.8576 18.1367 21.9236 20.1537 24.4676 20.1616H29.1343C29.2801 20.1537 29.4259 20.1379 29.5637 20.122L29.5718 24.7175C29.5718 25.6508 28.8021 26.4102 27.8461 26.4181ZM33.3796 21.4192C33.3715 22.3446 32.6019 23.096 31.6458 23.096H31.1921V19.5525C31.5405 19.3232 31.8565 19.0384 32.1238 18.722L33.3796 17.1401V21.4192ZM30.8438 17.765C30.4387 18.2791 29.8067 18.5797 29.1424 18.5876H24.4676C22.8148 18.5797 21.478 17.2746 21.478 15.661C21.478 14.0475 22.8148 12.7424 24.4676 12.7345H29.1343C29.6933 12.7345 30.2442 12.6158 30.7465 12.3785C31.2812 12.1333 31.7512 11.7616 32.1157 11.3028L33.3715 9.7209L33.3796 14.5537L30.8438 17.765ZM33.3796 7.13446L31.1921 9.887V6.58079C31.1921 4.7774 29.6933 3.32203 27.8461 3.32203H5.42824V3.28249C5.42824 2.34915 6.19792 1.58983 7.15393 1.58192H31.6458C32.6019 1.58983 33.3715 2.34915 33.3796 3.28249V7.13446Z" fill="#FF8A00"/>
</svg>
