<svg width="27" height="27" viewBox="0 0 27 27" fill="none" xmlns="http://www.w3.org/2000/svg">
<path d="M24.92 16.944C24.5486 16.944 24.2475 17.2466 24.2475 17.6199V23.6206C24.2462 24.7399 23.3439 25.647 22.2302 25.6481H3.36221C2.24847 25.647 1.3462 24.7399 1.34488 23.6206V6.00894C1.3462 4.88985 2.24847 3.98275 3.36221 3.98143H9.33275C9.70416 3.98143 10.0052 3.67889 10.0052 3.3056C10.0052 2.93257 9.70416 2.62976 9.33275 2.62976H3.36221C1.50616 2.63187 0.00210138 4.14353 0 6.00894V23.6208C0.00210138 25.4862 1.50616 26.9979 3.36221 27H22.2302C24.0863 26.9979 25.5903 25.4862 25.5924 23.6208V17.6199C25.5924 17.2466 25.2914 16.944 24.92 16.944Z" fill="#FF8A00"/>
<path d="M25.3259 0.890797C24.1441 -0.296932 22.2282 -0.296932 21.0464 0.890797L9.04963 12.9481C8.96741 13.0308 8.90805 13.1332 8.87705 13.2457L7.29944 18.97C7.23456 19.2046 7.30049 19.456 7.47175 19.6284C7.64328 19.8005 7.89334 19.8668 8.12686 19.8018L13.8224 18.216C13.9343 18.1848 14.0362 18.1252 14.1184 18.0425L26.1149 5.98492C27.2948 4.79639 27.2948 2.87237 26.1149 1.68385L25.3259 0.890797ZM10.5148 13.3874L20.3332 3.51917L23.4998 6.70167L13.6811 16.5699L10.5148 13.3874ZM9.8823 14.6631L12.4121 17.2059L8.91277 18.1803L9.8823 14.6631ZM25.164 5.02924L24.4509 5.746L21.2841 2.56323L21.9975 1.84647C22.6539 1.18674 23.7183 1.18674 24.3747 1.84647L25.164 2.63952C25.8194 3.30005 25.8194 4.36898 25.164 5.02924Z" fill="#FF8A00"/>
</svg>
