<svg width="20" height="24" viewBox="0 0 20 24" fill="none" xmlns="http://www.w3.org/2000/svg">
<path d="M19.9764 6.5094L19.976 6.48653C19.9648 5.88819 19.9543 5.32304 19.9543 4.7793C19.9543 3.95562 19.2969 3.28552 18.4889 3.28552C15.3624 3.28552 12.9895 2.37686 11.0212 0.425963C10.4484 -0.141956 9.55081 -0.142003 8.978 0.425916C7.00978 2.37686 4.63712 3.28552 1.5111 3.28552C0.703063 3.28552 0.0457004 3.95562 0.0457004 4.7793C0.0457004 5.33466 0.0349873 5.90544 0.0236305 6.50987C-0.0292454 9.33147 -0.0950414 12.843 1.06101 16.0305C1.69667 17.7833 2.65915 19.3064 3.92173 20.5578C5.35973 21.9829 7.24317 23.1134 9.51954 23.9178C9.67435 23.9725 9.83583 24.0002 9.99956 24.0002C10.1635 24.0002 10.325 23.9725 10.4795 23.9178C12.7562 23.1134 14.6398 21.9829 16.0779 20.5577C17.3406 19.3063 18.3032 17.7831 18.9389 16.0303C20.095 12.8426 20.0292 9.331 19.9764 6.5094ZM17.6451 15.5427C16.4259 18.9041 13.9342 21.209 10.0273 22.5894C10.0094 22.5957 9.98986 22.5958 9.97138 22.5893C6.06514 21.2091 3.57372 18.9042 2.35472 15.543C1.28902 12.6045 1.34939 9.38087 1.40268 6.53673C1.41417 5.9255 1.42503 5.34816 1.42503 4.7793C1.42503 4.73098 1.4636 4.69161 1.51105 4.69161C5.01921 4.69161 7.69744 3.6565 9.93961 1.43394C9.95639 1.4173 9.97795 1.40896 9.99952 1.40896C10.0211 1.40896 10.0427 1.41735 10.0595 1.43399C12.3018 3.6565 14.9803 4.69161 18.4889 4.69161C18.5363 4.69161 18.5749 4.73098 18.5749 4.7793C18.5749 5.3364 18.5855 5.90802 18.5968 6.5132L18.5972 6.53616V6.53621C18.6506 9.3804 18.7109 12.604 17.6451 15.5427Z" fill="#FF8A00"/>
<path d="M14.2853 9.66068H12.0661V7.39823C12.0661 7.00997 11.7573 6.69519 11.3764 6.69519H8.62387C8.24298 6.69519 7.93418 7.00997 7.93418 7.39823V9.66068H5.71459C5.3337 9.66068 5.0249 9.97545 5.0249 10.3637V13.1696C5.0249 13.5579 5.3337 13.8727 5.71459 13.8727H7.93418V16.1351C7.93418 16.5233 8.24298 16.8381 8.62387 16.8381H11.3764C11.7573 16.8381 12.0661 16.5233 12.0661 16.1351V13.8727H14.2854C14.6662 13.8727 14.975 13.5579 14.975 13.1696V10.3637C14.975 9.97541 14.6662 9.66068 14.2853 9.66068ZM13.5956 12.4666H11.3764C10.9956 12.4666 10.6868 12.7813 10.6868 13.1696V15.432H9.31355V13.1696C9.31355 12.7813 9.00476 12.4666 8.62387 12.4666H6.40427V11.0668H8.62387C9.00476 11.0668 9.31355 10.752 9.31355 10.3637V8.10128H10.6868V10.3637C10.6868 10.752 10.9956 11.0668 11.3764 11.0668H13.5957V12.4666H13.5956Z" fill="#FF8A00"/>
</svg>
